<svg xmlns="http://www.w3.org/2000/svg" viewBox="0 0 492.01 492"><defs><style>.cls-1{font-size:88.76px;fill:#ceb0fa;stroke:#231f20;stroke-miterlimit:10;font-family:Eckmannpsych-Small, Eckmannpsych;}</style></defs><g id="Layer_2" data-name="Layer 2"><g id="Layer_1-2" data-name="Layer 1"><text class="cls-1" transform="translate(170.53 88.41) rotate(-17.22)">k</text><text class="cls-1" transform="translate(214.49 74.02) rotate(-1.67)">a</text><text class="cls-1" transform="translate(264.21 73.45) rotate(10.99)">t</text><text class="cls-1" transform="matrix(0.95, 0.32, -0.32, 0.95, 292.12, 79.09)"> </text><text class="cls-1" transform="translate(309.35 83.26) rotate(29.44)">o</text><text class="cls-1" transform="matrix(0.76, 0.65, -0.65, 0.76, 349.4, 107.07)">’</text><text class="cls-1" transform="matrix(0.64, 0.77, -0.77, 0.64, 361.15, 114.37)">d</text><text class="cls-1" transform="matrix(0.42, 0.91, -0.91, 0.42, 393.34, 152.61)">e</text><text class="cls-1" transform="matrix(0.16, 0.99, -0.99, 0.16, 412.25, 191.71)">a</text><text class="cls-1" transform="matrix(-0.03, 1, -1, -0.03, 419.05, 241.19)"> </text><text class="cls-1" transform="translate(420.22 258.94) rotate(102.55)">k</text><text class="cls-1" transform="matrix(-0.47, 0.88, -0.88, -0.47, 410.9, 304.27)">a</text><text class="cls-1" transform="translate(386.65 347.59) rotate(130.9)">t</text><text class="cls-1" transform="matrix(-0.75, 0.66, -0.66, -0.75, 367.83, 368.99)"> </text><text class="cls-1" transform="matrix(-0.86, 0.51, -0.51, -0.86, 355.61, 381.88)">o</text><text class="cls-1" transform="translate(315.09 404.84) rotate(160.15)">’</text><text class="cls-1" transform="translate(302.95 411.42) rotate(169.88)">d</text><text class="cls-1" transform="translate(253.73 420.22) rotate(-174.87)">e</text><text class="cls-1" transform="matrix(-0.94, -0.35, 0.35, -0.94, 210.36, 417.2)">a</text><text class="cls-1" transform="matrix(-0.85, -0.52, 0.52, -0.85, 164.05, 398.52)"> </text><text class="cls-1" transform="translate(148.15 390.7) rotate(-137.56)">k</text><text class="cls-1" transform="matrix(-0.53, -0.85, 0.85, -0.53, 113.45, 359.98)">a</text><text class="cls-1" transform="translate(87.86 317.45) rotate(-109.28)">t</text><text class="cls-1" transform="translate(78.66 290.5) rotate(-101.5)"> </text><text class="cls-1" transform="translate(73.62 273.63) rotate(-90.96)">o</text><text class="cls-1" transform="translate(73.87 226.89) rotate(-80.07)">’</text><text class="cls-1" transform="matrix(0.34, -0.94, 0.94, 0.34, 74.19, 213.09)">d</text><text class="cls-1" transform="translate(90.98 166.01) rotate(-54.93)">e</text><text class="cls-1" transform="matrix(0.77, -0.64, 0.64, 0.77, 115.25, 129.96)">a</text></g></g></svg>
